<svg xmlns="http://www.w3.org/2000/svg" viewBox="0 0 1732 512" fill="none">
<path d="M 104 324 L 408 324 L 342 412 L 170 412 Z" fill="#000000"/><rect x="132" y="266" width="248" height="44" rx="22" fill="#000000"/><rect x="164" y="210" width="184" height="44" rx="22" fill="#000000"/><rect x="196" y="154" width="120" height="44" rx="22" fill="#000000"/><g transform="translate(600 352)"><path d="M19.720000000000002 0.0V-164.22H64.26V0.0ZM64.26 -90.78 46.92 -102.34Q49.980000000000004 -132.60000000000002 64.6 -150.11Q79.22 -167.62 106.76 -167.62Q118.66000000000001 -167.62 128.18 -163.71Q137.70000000000002 -159.8 145.52 -150.96L117.64000000000001 -119.00000000000001Q113.9 -123.08000000000001 108.63000000000001 -125.12Q103.36000000000001 -127.16000000000001 96.56 -127.16000000000001Q82.28 -127.16000000000001 73.27000000000001 -118.15Q64.26 -109.14000000000001 64.26 -90.78Z M161.16 0.0V-164.22H206.04000000000002V0.0ZM183.6 -190.74Q172.72 -190.74 165.57999999999998 -198.05Q158.44 -205.36 158.44 -216.24Q158.44 -226.78000000000003 165.57999999999998 -234.26000000000002Q172.72 -241.74 183.6 -241.74Q194.82 -241.74 201.79 -234.26000000000002Q208.76 -226.78000000000003 208.76 -216.24Q208.76 -205.36 201.79 -198.05Q194.82 -190.74 183.6 -190.74Z M314.16 72.76Q287.98 72.76 267.92 63.410000000000004Q247.86 54.06 235.96 37.06L264.18 8.84Q273.70000000000005 20.060000000000002 285.43000000000006 26.01Q297.16 31.96 313.82000000000005 31.96Q334.56000000000006 31.96 346.63000000000005 21.42Q358.70000000000005 10.88 358.70000000000005 -7.82V-48.96L366.18000000000006 -85.0L359.04 -121.04V-164.22H403.24V-8.5Q403.24 15.98 391.85 34.17Q380.46000000000004 52.36000000000001 360.40000000000003 62.56Q340.34000000000003 72.76 314.16 72.76ZM312.12 -4.42Q290.02000000000004 -4.42 272.34000000000003 -15.130000000000003Q254.66000000000003 -25.840000000000003 244.63000000000002 -44.540000000000006Q234.60000000000002 -63.24 234.60000000000002 -86.36Q234.60000000000002 -109.48 244.63000000000002 -127.84Q254.66000000000003 -146.20000000000002 272.34000000000003 -156.91000000000003Q290.02000000000004 -167.62 312.12 -167.62Q330.48 -167.62 344.59000000000003 -160.48000000000002Q358.70000000000005 -153.34 366.86 -140.93Q375.02000000000004 -128.52 375.70000000000005 -111.86000000000001V-60.18000000000001Q375.02000000000004 -43.86000000000001 366.69000000000005 -31.110000000000007Q358.36 -18.360000000000003 344.25 -11.39Q330.14000000000004 -4.42 312.12 -4.42ZM320.96000000000004 -44.88Q333.20000000000005 -44.88 342.21000000000004 -50.150000000000006Q351.22 -55.42 356.32000000000005 -64.77000000000001Q361.42 -74.12 361.42 -86.02000000000001Q361.42 -98.26 356.32000000000005 -107.44Q351.22 -116.62 342.21000000000004 -121.89000000000001Q333.20000000000005 -127.16000000000001 320.96000000000004 -127.16000000000001Q308.72 -127.16000000000001 299.54 -121.89000000000001Q290.36 -116.62 285.26 -107.27000000000001Q280.16 -97.92 280.16 -86.02000000000001Q280.16 -74.46000000000001 285.26 -65.11000000000001Q290.36 -55.760000000000005 299.54 -50.32000000000001Q308.72 -44.88 320.96000000000004 -44.88Z M511.02 72.76Q484.84000000000003 72.76 464.78000000000003 63.410000000000004Q444.72 54.06 432.82 37.06L461.04 8.84Q470.56 20.060000000000002 482.28999999999996 26.01Q494.02 31.96 510.68 31.96Q531.4200000000001 31.96 543.49 21.42Q555.56 10.88 555.56 -7.82V-48.96L563.04 -85.0L555.9 -121.04V-164.22H600.1V-8.5Q600.1 15.98 588.71 34.17Q577.32 52.36000000000001 557.26 62.56Q537.2 72.76 511.02 72.76ZM508.98 -4.42Q486.88 -4.42 469.2 -15.130000000000003Q451.52 -25.840000000000003 441.49 -44.540000000000006Q431.46 -63.24 431.46 -86.36Q431.46 -109.48 441.49 -127.84Q451.52 -146.20000000000002 469.2 -156.91000000000003Q486.88 -167.62 508.98 -167.62Q527.34 -167.62 541.45 -160.48000000000002Q555.56 -153.34 563.72 -140.93Q571.88 -128.52 572.56 -111.86000000000001V-60.18000000000001Q571.88 -43.86000000000001 563.55 -31.110000000000007Q555.22 -18.360000000000003 541.11 -11.39Q527.0 -4.42 508.98 -4.42ZM517.82 -44.88Q530.0600000000001 -44.88 539.07 -50.150000000000006Q548.08 -55.42 553.1800000000001 -64.77000000000001Q558.28 -74.12 558.28 -86.02000000000001Q558.28 -98.26 553.1800000000001 -107.44Q548.08 -116.62 539.07 -121.89000000000001Q530.0600000000001 -127.16000000000001 517.82 -127.16000000000001Q505.58000000000004 -127.16000000000001 496.40000000000003 -121.89000000000001Q487.22 -116.62 482.12 -107.27000000000001Q477.02 -97.92 477.02 -86.02000000000001Q477.02 -74.46000000000001 482.12 -65.11000000000001Q487.22 -55.760000000000005 496.40000000000003 -50.32000000000001Q505.58000000000004 -44.88 517.82 -44.88Z M639.2 0.0V-164.22H684.08V0.0ZM661.64 -190.74Q650.76 -190.74 643.62 -198.05Q636.48 -205.36 636.48 -216.24Q636.48 -226.78000000000003 643.62 -234.26000000000002Q650.76 -241.74 661.64 -241.74Q672.86 -241.74 679.83 -234.26000000000002Q686.8000000000001 -226.78000000000003 686.8000000000001 -216.24Q686.8000000000001 -205.36 679.83 -198.05Q672.86 -190.74 661.64 -190.74Z M834.0200000000001 0.0V-94.18Q834.0200000000001 -108.80000000000001 824.8400000000001 -117.98000000000002Q815.6600000000001 -127.16000000000001 801.0400000000001 -127.16000000000001Q791.5200000000001 -127.16000000000001 784.0400000000001 -123.08000000000001Q776.5600000000001 -119.00000000000001 772.3100000000001 -111.52000000000001Q768.0600000000001 -104.04 768.0600000000001 -94.18L750.72 -103.02000000000001Q750.72 -122.4 759.0500000000001 -136.85000000000002Q767.3800000000001 -151.3 782.1700000000001 -159.46Q796.96 -167.62 815.6600000000001 -167.62Q833.6800000000001 -167.62 847.96 -158.61Q862.24 -149.60000000000002 870.4000000000001 -135.15Q878.5600000000001 -120.7 878.5600000000001 -104.04V0.0ZM723.5200000000001 0.0V-164.22H768.0600000000001V0.0Z M983.2800000000001 72.76Q957.1000000000001 72.76 937.0400000000002 63.410000000000004Q916.9800000000001 54.06 905.0800000000002 37.06L933.3000000000001 8.84Q942.8200000000002 20.060000000000002 954.5500000000002 26.01Q966.2800000000001 31.96 982.94 31.96Q1003.6800000000001 31.96 1015.7500000000001 21.42Q1027.8200000000002 10.88 1027.8200000000002 -7.82V-48.96L1035.3000000000002 -85.0L1028.16 -121.04V-164.22H1072.3600000000001V-8.5Q1072.3600000000001 15.98 1060.9700000000003 34.17Q1049.5800000000002 52.36000000000001 1029.5200000000002 62.56Q1009.4600000000002 72.76 983.2800000000001 72.76ZM981.2400000000001 -4.42Q959.1400000000001 -4.42 941.46 -15.130000000000003Q923.7800000000001 -25.840000000000003 913.7500000000001 -44.540000000000006Q903.7200000000001 -63.24 903.7200000000001 -86.36Q903.7200000000001 -109.48 913.7500000000001 -127.84Q923.7800000000001 -146.20000000000002 941.46 -156.91000000000003Q959.1400000000001 -167.62 981.2400000000001 -167.62Q999.6000000000001 -167.62 1013.7100000000002 -160.48000000000002Q1027.8200000000002 -153.34 1035.98 -140.93Q1044.14 -128.52 1044.8200000000002 -111.86000000000001V-60.18000000000001Q1044.14 -43.86000000000001 1035.81 -31.110000000000007Q1027.48 -18.360000000000003 1013.3700000000001 -11.39Q999.2600000000001 -4.42 981.2400000000001 -4.42ZM990.0800000000002 -44.88Q1002.3200000000002 -44.88 1011.3300000000002 -50.150000000000006Q1020.3400000000001 -55.42 1025.44 -64.77000000000001Q1030.5400000000002 -74.12 1030.5400000000002 -86.02000000000001Q1030.5400000000002 -98.26 1025.44 -107.44Q1020.3400000000001 -116.62 1011.3300000000002 -121.89000000000001Q1002.3200000000002 -127.16000000000001 990.0800000000002 -127.16000000000001Q977.8400000000001 -127.16000000000001 968.6600000000001 -121.89000000000001Q959.4800000000001 -116.62 954.3800000000001 -107.27000000000001Q949.2800000000001 -97.92 949.2800000000001 -86.02000000000001Q949.2800000000001 -74.46000000000001 954.3800000000001 -65.11000000000001Q959.4800000000001 -55.760000000000005 968.6600000000001 -50.32000000000001Q977.8400000000001 -44.88 990.0800000000002 -44.88Z" fill="#000000"/></g>
</svg>
